<mxfile host="app.diagrams.net" modified="2022-08-22T06:25:30.876Z" agent="5.0 (Macintosh; Intel Mac OS X 10_15_7) AppleWebKit/537.36 (KHTML, like Gecko) Chrome/104.0.0.0 Safari/537.36" etag="KlUjotZcsiBkwwBno6hX" version="20.2.3" type="github">
  <diagram id="CPeEz-v1EWg7gTjRwP_E" name="Page-1">
    <mxGraphModel dx="1298" dy="733" grid="1" gridSize="10" guides="1" tooltips="1" connect="1" arrows="1" fold="1" page="1" pageScale="1" pageWidth="850" pageHeight="1100" math="0" shadow="0">
      <root>
        <mxCell id="0" />
        <mxCell id="1" parent="0" />
        <mxCell id="NS94gfJVJb8tKF9JiYto-5" style="edgeStyle=orthogonalEdgeStyle;rounded=0;orthogonalLoop=1;jettySize=auto;html=1;exitX=0.5;exitY=1;exitDx=0;exitDy=0;entryX=0.5;entryY=0;entryDx=0;entryDy=0;" edge="1" parent="1" source="NS94gfJVJb8tKF9JiYto-1" target="NS94gfJVJb8tKF9JiYto-3">
          <mxGeometry relative="1" as="geometry" />
        </mxCell>
        <mxCell id="NS94gfJVJb8tKF9JiYto-6" style="edgeStyle=orthogonalEdgeStyle;rounded=0;orthogonalLoop=1;jettySize=auto;html=1;exitX=0.5;exitY=1;exitDx=0;exitDy=0;entryX=0.5;entryY=0;entryDx=0;entryDy=0;" edge="1" parent="1" source="NS94gfJVJb8tKF9JiYto-1" target="NS94gfJVJb8tKF9JiYto-2">
          <mxGeometry relative="1" as="geometry" />
        </mxCell>
        <mxCell id="NS94gfJVJb8tKF9JiYto-7" style="edgeStyle=orthogonalEdgeStyle;rounded=0;orthogonalLoop=1;jettySize=auto;html=1;exitX=0.5;exitY=1;exitDx=0;exitDy=0;entryX=0.5;entryY=0;entryDx=0;entryDy=0;" edge="1" parent="1" source="NS94gfJVJb8tKF9JiYto-1" target="NS94gfJVJb8tKF9JiYto-4">
          <mxGeometry relative="1" as="geometry" />
        </mxCell>
        <mxCell id="NS94gfJVJb8tKF9JiYto-1" value="would rather" style="rounded=1;whiteSpace=wrap;html=1;fillColor=#e1d5e7;strokeColor=#9673a6;" vertex="1" parent="1">
          <mxGeometry x="320" y="160" width="120" height="60" as="geometry" />
        </mxCell>
        <mxCell id="NS94gfJVJb8tKF9JiYto-2" value="动词完成式" style="rounded=1;whiteSpace=wrap;html=1;fillColor=#dae8fc;strokeColor=#6c8ebf;" vertex="1" parent="1">
          <mxGeometry x="320" y="280" width="120" height="60" as="geometry" />
        </mxCell>
        <mxCell id="NS94gfJVJb8tKF9JiYto-3" value="动词原型" style="rounded=1;whiteSpace=wrap;html=1;fillColor=#d5e8d4;strokeColor=#82b366;" vertex="1" parent="1">
          <mxGeometry x="160" y="280" width="120" height="60" as="geometry" />
        </mxCell>
        <mxCell id="NS94gfJVJb8tKF9JiYto-4" value="从句" style="rounded=1;whiteSpace=wrap;html=1;fillColor=#ffe6cc;strokeColor=#d79b00;" vertex="1" parent="1">
          <mxGeometry x="480" y="280" width="120" height="60" as="geometry" />
        </mxCell>
      </root>
    </mxGraphModel>
  </diagram>
</mxfile>
